
<svg aria-hidden="true" class="icon icon--linkedin" xmlns="http://www.w3.org/2000/svg" width="20" height="20" viewBox="0 0 216 216">
	<path d="M5.6,30c0.3-1.3,0.6-2.6,1-3.9c2.1-6.6,6.3-11.3,12.8-13.8c9-3.4,18-3.3,26.2,2.3c7.6,5.2,10.3,13,9.1,21.9
		c-1.2,8.6-6.2,14.6-14.4,17.5c-8.8,3.1-17.5,2.7-25.5-2.7c-5-3.4-7.9-8.4-8.9-14.4c-0.1-0.4-0.2-0.7-0.3-1.1
		C5.6,33.9,5.6,32,5.6,30z"/>
	<path d="M76.5,205.9c0-44.1,0-88,0-132.1c0.7,0,1.2,0,1.8,0c13.3,0,26.7,0,40,0c1.7,0,2.1,0.5,2,2.1c-0.1,5.3,0,10.6,0.3,16.1
		c0.5-0.7,0.9-1.3,1.4-2c6.7-9.4,15.3-16,26.9-18.1c13.7-2.5,26.8-1,38.8,6.5c6.3,4,11.1,9.4,14.7,15.9c5.6,10.1,7.7,21.1,7.9,32.5
		c0.2,12.6,0.1,25.2,0.1,37.9c0,13,0,26,0,39c0,0.6,0,1.3,0,2.1c-0.7,0-1.2,0.1-1.8,0.1c-13.4,0-26.8,0-40.1,0c-1.5,0-2-0.4-2-2
		c0.1-22.5,0-45.1,0-67.6c0-6-0.5-11.9-2.5-17.6c-3.4-9.2-11.3-13.9-21.1-13.3c-11.3,0.7-19.3,9-21.6,18c-0.8,3.2-0.9,6.7-0.9,10
		c-0.1,23.5,0,46.9,0,70.4c0,2.1,0,2.1-2.1,2.1c-13.3,0-26.5,0-39.8,0C77.8,205.9,77.2,205.9,76.5,205.9z"/>
	<path d="M52.1,140c0,21.3,0,42.6,0,63.9c0,1.6-0.3,2.1-2,2.1c-13.3-0.1-26.7-0.1-40,0c-1.5,0-1.9-0.4-1.9-1.9
		c0-42.8,0-85.6,0-128.4c0-1.4,0.4-1.8,1.8-1.8c13.4,0.1,26.9,0.1,40.3,0c1.4,0,1.8,0.4,1.8,1.8C52.1,97.1,52.1,118.5,52.1,140z"/>
</svg>
