<svg width="32" height="32" xmlns="http://www.w3.org/2000/svg"><g transform="translate(1 1)" fill="none" fill-rule="evenodd"><ellipse stroke="#30C" fill="#30C" cx="14.935" cy="14.941" rx="14.935" ry="14.941"/><path d="M23 17.672c0-.453-.404-.818-.905-.818-.496 0-.904.365-.904.818v1.693l-3.65-3.137a1.009 1.009 0 00-1.276 0 .703.703 0 000 1.099l3.631 3.12h-1.961c-.535 0-.965.348-.965.777 0 .429.43.776.965.776h4.1c.533 0 .963-.347.965-.776l-.005-.032c.001-.015.005-.03.005-.046v-3.474zm-10.543-1.444L8.81 19.365v-1.693c0-.453-.408-.817-.905-.818-.5 0-.904.365-.904.818L7 21.147c0 .015.005.03.006.045l-.005.032c.001.43.432.776.965.776h4.1c.533 0 .964-.347.964-.776 0-.429-.43-.776-.964-.777h-1.961l3.631-3.12a.704.704 0 000-1.099 1.011 1.011 0 00-1.28 0zm5.085-3.457l3.65-3.135v1.694c0 .45.407.815.904.817.5 0 .904-.367.904-.817V7.854c0-.016-.004-.031-.005-.045L23 7.777c-.002-.43-.432-.777-.965-.777h-4.1c-.535 0-.965.347-.965.777 0 .428.43.776.965.777h1.961l-3.631 3.12a.7.7 0 000 1.097c.353.305.924.305 1.277 0zm-7.437-4.217h1.96c.534 0 .965-.35.965-.777 0-.43-.431-.777-.964-.777h-4.1c-.533 0-.964.347-.965.777l.005.032c-.001.014-.006.029-.006.045l.001 3.476c0 .45.404.817.904.817.497-.001.905-.366.905-.817V9.637l3.647 3.134a1.01 1.01 0 001.28 0 .702.702 0 000-1.096l-3.632-3.12z" fill="#FFF" fill-rule="nonzero"/></g></svg>