<svg aria-hidden="true" class="icon icon--instagram" xmlns="http://www.w3.org/2000/svg" width="20" height="20" viewBox="0 0 216 216">
  	<path d="M144.2,209.8c-24,0-48.1,0-72.1,0c-2.9-0.2-5.8-0.6-8.7-0.7c-31.9-1.6-52.4-20.6-56.1-52.2c-0.5-4.4-0.8-8.7-1.2-13.1
			c0-24,0-48.1,0-72.1c0.2-2.7,0.5-5.4,0.7-8.1C7.8,49.3,11.4,36,21.2,24.9c11.2-12.6,25.8-18,42.1-18.3c29.9-0.5,59.8-0.5,89.7,0
			c14.2,0.2,27.4,4.6,38.3,14.5c12.4,11.2,17.8,25.8,18,41.9c0.5,29.9,0.8,59.8,0,89.7c-0.9,31.9-20.4,52.2-51.9,56
			C153,209.1,148.6,209.4,144.2,209.8z M108.4,190.7C108.4,190.7,108.4,190.7,108.4,190.7c14.4,0,28.8,0,43.1-0.1
			c1.8,0,3.6-0.3,5.4-0.6c17.5-2.2,28.9-12.1,32.6-28.5c1-4.3,1.5-8.7,1.6-13.1c0.3-20.2,0.6-40.3,0.6-60.5c0-9.7-0.3-19.5-1.3-29.2
			c-1.9-18.2-12.6-29.9-30.6-32.7c-10-1.6-20.3-1.8-30.5-1.8c-21.3-0.1-42.6-0.1-63.9,0.6C40,25.7,26.5,39.5,25.3,65
			c-0.4,7.2-0.7,14.5-0.6,21.7c0.1,21.3,0,42.6,0.7,63.9c0.9,25.3,14.6,39,39.9,40C79.7,191.1,94.1,190.7,108.4,190.7z"/>
		<path d="M108.2,160.1c-29.1,0-52.4-23.3-52.4-52.5c0-28.9,23.4-52.2,52.3-52.3c29.1,0,52.4,23.3,52.4,52.5
			C160.6,136.8,137.2,160.1,108.2,160.1z M142.2,107.7c0-18.7-15.3-33.9-33.9-34c-18.7,0-34,15.2-34.1,33.8
			c-0.1,18.8,15.3,34.2,34.1,34.1C127,141.7,142.2,126.4,142.2,107.7z"/>
		<path d="M174.9,53.5c-0.1,6.8-5.7,12.2-12.5,12.1c-6.7-0.1-12-5.6-12-12.3c0-6.8,5.5-12.3,12.4-12.2
			C169.6,41.1,175,46.6,174.9,53.5z"/>
</svg>
