<?xml version="1.0" encoding="UTF-8"?>
<svg width="32px" height="32px" viewBox="0 0 32 32" version="1.1" xmlns="http://www.w3.org/2000/svg" xmlns:xlink="http://www.w3.org/1999/xlink">
    <!-- Generator: Sketch 52.6 (67491) - http://www.bohemiancoding.com/sketch -->
    <title>expand</title>
    <desc>Created with Sketch.</desc>
    <g id="Gallery" stroke="none" stroke-width="1" fill="none" fill-rule="evenodd">
        <g id="gallery-desktop-1440" transform="translate(-1282.000000, -314.000000)">
            <g id="Group-Copy-3" transform="translate(1030.000000, 191.000000)">
                <g id="expand-button" transform="translate(251.000000, 122.000000)">
                    <g id="Group" transform="translate(2.000000, 2.000000)">
                        <ellipse id="Oval-2" stroke="#3300CC" fill="#3300CC" cx="14.9346825" cy="14.9414539" rx="14.9346825" ry="14.9414539"></ellipse>
                        <g id="Group-3" transform="translate(7.000000, 7.000000)" fill="#FFFFFF" fill-rule="nonzero">
                            <g id="icon">
                                <path d="M15.9993937,10.671798 C15.9993937,10.2194889 15.5961713,9.85368131 15.0953268,9.85368131 C14.5987267,9.85472349 14.1906536,10.2194889 14.1906536,10.671798 L14.1906536,12.3653516 L10.5416432,9.2278481 C10.1887479,8.92405063 9.61756681,8.92405063 9.26467149,9.2278481 C8.91177617,9.53112448 8.91177617,10.0235578 9.26467149,10.3268341 L12.8960977,13.4466205 L10.9345576,13.4466205 C10.4003638,13.4476627 9.96985578,13.795232 9.96985578,14.2235708 C9.96985578,14.6529518 10.4003638,15 10.9345576,15 L15.0340855,15 C15.5682793,15 15.998181,14.6534729 16,14.2235708 C15.998181,14.2121067 15.9963619,14.2032481 15.9945429,14.1917841 C15.9963619,14.1771935 16,14.1615607 16,14.146449 L16,10.671798 L15.9993937,10.671798 Z" id="Shape"></path>
                                <path d="M5.45690775,9.2277657 L1.8098744,12.3650308 L1.8098744,10.6716059 C1.8098744,10.2193311 1.40242529,9.85459345 0.904634041,9.85355134 C0.40502382,9.85355134 0.00121264617,10.2193311 0.00121264617,10.6716059 L0,14.1465138 C0,14.1616244 0.00485058467,14.177256 0.00606323084,14.1918455 C0.00485058467,14.2027876 0.00242529233,14.2116456 0.00121264617,14.2236298 C0.00242529233,14.6534992 0.432914682,15 0.966478995,15 L5.06643569,15 C5.59939368,15 6.03048939,14.6529782 6.03048939,14.2236298 C6.03048939,13.7953236 5.59939368,13.4477806 5.06643569,13.4467385 L3.10498051,13.4467385 L6.73624946,10.3271893 C7.08791685,10.0239359 7.08791685,9.53154008 6.73624946,9.22828675 C6.3827631,8.92399131 5.81100043,8.92399131 5.45690775,9.2277657 Z" id="Shape"></path>
                                <path d="M10.5417768,5.7714428 L14.1911032,2.63612578 L14.1911032,4.32962425 C14.1911032,4.78035538 14.5992117,5.1451089 15.0958548,5.14667213 C15.5967428,5.14667213 16,4.78035538 16,4.32962425 L16,0.853523231 C16,0.838412014 15.9963616,0.82277972 15.9945424,0.809231732 C15.9963616,0.798289127 15.9981808,0.787867598 16,0.776924992 C15.9981808,0.346515842 15.5682419,0 15.0346082,0 L10.9347252,0 C10.4004851,0 9.96993979,0.346515842 9.96993979,0.776924992 C9.96993979,1.20472876 10.4004851,1.55332891 10.9347252,1.55437106 L12.8964352,1.55437106 L9.26469442,4.67405579 C8.91176853,4.97680121 8.91176853,5.4681763 9.26469442,5.77092172 C9.61762031,6.07627252 10.1888509,6.07627252 10.5417768,5.7714428 Z" id="Shape"></path>
                                <path d="M3.10498051,1.5543542 L5.06582936,1.5543542 C5.59878735,1.55331206 6.02988307,1.20471569 6.02988307,0.776916564 C6.02988307,0.346512082 5.59878735,0 5.06582936,0 L0.966478995,0 C0.432914682,0 0.00242529233,0.346512082 0.00121264617,0.776916564 C0.00242529233,0.78785905 0.00485058467,0.798280466 0.00606323084,0.809222953 C0.00485058467,0.822770794 0,0.837881847 0,0.853513971 L0.00121264617,4.33009835 C0.00121264617,4.78082459 0.40502382,5.14713737 0.904634041,5.14713737 C1.40242529,5.14557415 1.8098744,4.78082459 1.8098744,4.33009835 L1.8098744,2.63661825 L5.45690775,5.77138019 C5.81100043,6.0762066 6.3827631,6.0762066 6.73624946,5.77138019 C7.08791685,5.46863805 7.08791685,4.97726829 6.73624946,4.67452615 L3.10498051,1.5543542 Z" id="Shape"></path>
                            </g>
                        </g>
                    </g>
                </g>
            </g>
        </g>
    </g>
</svg>